<svg version="1.1" xmlns="http://www.w3.org/2000/svg" xmlns:xlink="http://www.w3.org/1999/xlink" viewBox="0 0 256 256" xml:space="preserve">
    <g><g><path fill="#ebac78" d="M215.4,91.2l-27.4-77c-0.6-1.8-2.1-3.1-3.9-3.6c-2.6-1.2-5.8-0.4-7.4,2.1l-44.3,68.8c-1.8,2.7-1,6.4,1.8,8.1c1,0.6,2.1,0.9,3.2,0.9c1.9,0,3.8-0.9,4.9-2.7l30.6-47.5c-15.4,106.6-49,154-75.4,175c-26.8,21.4-50.4,19-50.8,19c-3.3-0.4-6.1,1.9-6.5,5.1c-0.4,3.2,1.9,6.1,5.1,6.5c0.3,0,1.7,0.2,4.2,0.2c8.9,0,30.7-2.2,54.8-21.2c28.4-22.4,64.5-72.5,80.4-184.7l19.6,55c0.8,2.4,3.1,3.9,5.5,3.9c0.6,0,1.3-0.1,2-0.3C214.9,97.6,216.5,94.3,215.4,91.2z"/></g></g>
</svg>