<svg xmlns="http://www.w3.org/2000/svg" width="37.897" height="14.181" viewBox="0 0 42.115 22.289"><path fill="white" d="M-8.334.07h14.7c.127 0 .212.053.254.159.064.085.053.18-.032.286l-2.35 3.08a1.29 1.29 0 0 1-1.048.508h-7.842v5.08h7.938c.254 0 .381.127.381.381v3.239c0 .275-.127.413-.381.413h-7.937v5.048H5.382a.3.3 0 0 1 .254.127.3.3 0 0 1 .127.254v3.27c0 .254-.127.381-.381.381H-8.334c-.106 0-.201-.032-.286-.095-.064-.085-.095-.18-.095-.286V.451c0-.106.032-.191.095-.254.085-.085.18-.127.286-.127zm19.939 0h16.764c.254 0 .381.127.381.381v4.667c0 .296-.085.561-.254.794l-4.064 5.27 4.064 5.27c.169.233.254.497.254.794v4.667c0 .254-.127.381-.381.381H11.605c-.106 0-.201-.032-.286-.095-.064-.085-.095-.18-.095-.286V.451c0-.106.032-.191.095-.254.085-.085.18-.127.286-.127zm12.986 18.193l-5.239-6.826c-.106-.169-.106-.328 0-.476l5.239-6.858h-9.303v14.16zm8.731 3.588V.387c0-.106.032-.191.095-.254.085-.085.18-.127.286-.127h16.764a.3.3 0 0 1 .254.127.3.3 0 0 1 .127.254v4.667a1.22 1.22 0 0 1-.286.794l-4.636 6.064a1.29 1.29 0 0 1-1.048.508h-4.032c-.127 0-.222-.042-.286-.127-.042-.106-.021-.212.064-.317l6.096-7.937h-9.335V21.85c0 .254-.138.381-.413.381h-3.27c-.106 0-.201-.032-.286-.095-.064-.085-.095-.18-.095-.286z"/></svg>